 <svg version="1.1" xmlns="http://www.w3.org/2000/svg" x="0" y="0" width="24" height="24" viewBox="0 0 24 24" xml:space="preserve" fill="#E5415E"><path d="M22.5 1c-4.669 0-9.47 1.021-11 2.786C9.97 2.021 5.169 1 .5 1c-.276 0-.5.224-.5.5V18c0 .276.224.5.5.5 5.913 0 10.5 1.613 10.5 3 0 .276.224.5.5.5s.5-.224.5-.5c0-1.387 4.587-3 10.5-3 .276 0 .5-.224.5-.5V1.5c0-.276-.224-.5-.5-.5zM1 17.504v-15.5C6.67 2.091 11 3.652 11 5v14.829c-1.829-1.424-5.915-2.262-10-2.325zm21 0c-4.085.063-8.171.901-10 2.325V5c0-1.348 4.33-2.909 10-2.996v15.5z"/><path d="M9.179 6.774c-1.683-.645-4.042-1.097-6.645-1.273-.264-.006-.514.189-.533.465-.019.276.189.514.465.533 2.507.17 4.764.599 6.355 1.208.059.022.119.033.179.033.201 0 .391-.122.467-.321.098-.258-.03-.547-.288-.645zm0 3c-1.683-.645-4.042-1.097-6.645-1.273-.264-.009-.514.189-.533.465-.019.276.189.514.465.533 2.507.17 4.764.599 6.355 1.208.059.022.119.033.179.033.201 0 .391-.122.467-.321.098-.258-.03-.547-.288-.645zm0 3c-1.683-.645-4.042-1.097-6.645-1.273-.264-.012-.514.189-.533.465-.019.275.189.514.465.532 2.507.17 4.764.599 6.355 1.208.059.023.119.034.179.034.201 0 .391-.122.467-.321.098-.258-.03-.547-.288-.645zm0 3c-1.683-.645-4.042-1.097-6.645-1.273-.264-.015-.514.189-.533.465-.019.275.189.514.465.532 2.507.17 4.764.599 6.355 1.208.059.023.119.034.179.034.201 0 .391-.122.467-.321.098-.258-.03-.547-.288-.645zM14 7.74c.06 0 .12-.011.179-.034 1.592-.609 3.849-1.038 6.355-1.208.275-.018.483-.257.465-.532-.019-.276-.246-.47-.533-.465-2.603.176-4.962.628-6.645 1.273-.258.098-.387.387-.288.645.076.2.266.321.467.321zm0 3c.06 0 .12-.011.179-.034 1.592-.609 3.849-1.038 6.355-1.208.275-.018.483-.257.465-.532-.019-.276-.246-.473-.533-.465-2.603.176-4.962.628-6.645 1.273-.258.098-.387.387-.288.645.076.2.266.321.467.321zm0 3c.06 0 .12-.011.179-.034 1.592-.609 3.849-1.038 6.355-1.208.275-.018.483-.257.465-.532-.019-.276-.246-.476-.533-.465-2.603.176-4.962.628-6.645 1.273-.258.098-.387.387-.288.645.076.2.266.321.467.321zm0 3c.06 0 .12-.011.179-.034 1.592-.609 3.849-1.038 6.355-1.208.275-.018.483-.257.465-.532-.019-.276-.246-.479-.533-.465-2.603.176-4.962.628-6.645 1.273-.258.098-.387.387-.288.645.076.2.266.321.467.321z"/><path fill="none" d="M0 0h24v24H0z"/></svg>
