 <svg version="1.1" xmlns="http://www.w3.org/2000/svg" x="0" y="0" width="24" height="24" viewBox="0 0 24 24" xml:space="preserve" fill="#f49e44"><path d="M21.5 5h-19C1.121 5 0 6.122 0 7.5v10C0 18.878 1.121 20 2.5 20h19c1.379 0 2.5-1.122 2.5-2.5v-10C24 6.122 22.879 5 21.5 5zm-19 1h19c.827 0 1.5.673 1.5 1.5V9H1V7.5C1 6.673 1.673 6 2.5 6zm19 13h-19c-.827 0-1.5-.673-1.5-1.5V10h22v7.5c0 .827-.673 1.5-1.5 1.5z"/><path d="M20.5 12h-3c-.276 0-.5.224-.5.5s.224.5.5.5h3c.276 0 .5-.224.5-.5s-.224-.5-.5-.5zm-9 0h-8c-.276 0-.5.224-.5.5s.224.5.5.5h8c.276 0 .5-.224.5-.5s-.224-.5-.5-.5zm-5 2h-3c-.276 0-.5.224-.5.5s.224.5.5.5h3c.276 0 .5-.224.5-.5s-.224-.5-.5-.5z"/><path fill="none" d="M0 0h24v24H0z"/></svg>
