<svg version="1.1" xmlns="http://www.w3.org/2000/svg" x="0" y="0" width="24" height="24" viewBox="0 0 24 24" xml:space="preserve" fill="#276FD0"><path d="M.301 10.958l11.5 5c.063.028.131.042.199.042s.136-.014.199-.042l11.5-5c.253-.109.369-.405.26-.658-.11-.252-.406-.37-.658-.259L12 14.955.699 10.042c-.251-.11-.548.007-.658.259-.109.253.007.548.26.657z"/><path d="M23.301 13.042L12 17.955.699 13.042c-.251-.11-.548.006-.658.259-.109.253.007.548.26.658l11.5 5c.063.027.131.041.199.041s.136-.014.199-.042l11.5-5c.253-.109.369-.405.26-.658-.11-.253-.406-.369-.658-.258z"/><path d="M23.301 16.042L12 20.955.699 16.042c-.251-.111-.548.005-.658.259-.109.253.007.548.26.658l11.5 5c.063.027.131.041.199.041s.136-.014.199-.042l11.5-5c.253-.109.369-.405.26-.658-.11-.253-.406-.369-.658-.258zm-23-8.084l11.5 5c.063.028.131.042.199.042s.136-.014.199-.042l11.5-5c.183-.079.301-.259.301-.458s-.118-.379-.301-.458l-11.5-5c-.127-.056-.271-.056-.398 0l-11.5 5C.118 7.121 0 7.301 0 7.5s.118.379.301.458zM12 3.046L22.246 7.5 12 11.955 1.754 7.5 12 3.046z"/><path fill="none" d="M0 0h24v24H0z"/></svg>

